<svg xmlns="http://www.w3.org/2000/svg" viewBox="0 0 267.22 94.85"><defs><style>.cls-1{fill:#ee4145;}.cls-2{fill:#252122;}</style></defs><title>Asset 1</title><g id="Layer_2" data-name="Layer 2"><g id="Layer_1-2" data-name="Layer 1"><path class="cls-1" d="M196.9,0V6.38h-3.38c-.79-.75-.19-1.9-1-2.67-1.12-.4-1.69.36-2.13,1.26a13.6,13.6,0,0,0-1.11,5.36c-.4,8.26-.76,16.52-1.14,24.89H197a16.49,16.49,0,0,1,.13,3.22h-9.26L182.95,93.8l-4,1.05,3.17-56.39c-2.15-.22-4.23.3-6.37.13V35.38h3.32c2.25,0,3.26-.88,3.36-3.14.12-2.71.07-5.44.13-8.15.13-6,1-11.93,3.94-17.34,1.68-3.06,3.78-5.62,7.24-6.75Z"/><path class="cls-2" d="M90.66,17.92c6.22.25,12.43-.43,18.59.36,4,.52,7.28,2.37,8.75,6.48a7.67,7.67,0,0,1,.47,2.34,97.71,97.71,0,0,1,0,10.31c-.26,3.71-2.16,5.86-5.78,6.88-.22.06-.43.14-.73.25,5.84,1.13,7.3,4.62,7.39,9.8.09,4.92,0,9.84,0,14.76,0,1.65-.09,3.28,1.57,4.71H110.73A2,2,0,0,1,108.57,72a7.33,7.33,0,0,1-.11-1.43q0-8,0-16c0-3.64-1.35-5-5-5-.71,0-1.42.06-2.25.1v24H90.66Zm10.6,9.9V40.09a7.7,7.7,0,0,0,3.51,0,3.19,3.19,0,0,0,2.89-3.4c0-1.8,0-3.6,0-5.39A3.16,3.16,0,0,0,105,27.94,9.7,9.7,0,0,0,101.25,27.82Z"/><path class="cls-2" d="M59.37,46.61c-.16,5.56.18,11.12-.21,16.67a18.43,18.43,0,0,1-.58,3.42,8.77,8.77,0,0,1-7.34,6.71,31.81,31.81,0,0,1-12.51,0c-4.77-1-7.35-4.05-7.9-9.25a46.6,46.6,0,0,1-.26-5c0-9.6,0-19.2.05-28.8A21.19,21.19,0,0,1,31.13,26a9,9,0,0,1,7.44-7.48,30.88,30.88,0,0,1,11.8-.18c5.77,1,8.36,4.14,8.77,10.11S59.2,40.57,59.37,46.61Zm-10.91.22c0-5.47,0-9.94,0-14.42a10.49,10.49,0,0,0-.25-2.73c-.41-1.53-1.27-2.14-3-2.19s-2.88.6-3.34,2.09a12.24,12.24,0,0,0-.35,3.68q0,12.71,0,25.41a20.52,20.52,0,0,0,.14,2.75c.31,2.28,1.61,3.26,3.9,3,1.81-.19,2.68-1.14,2.79-3.25C48.61,56.06,48.37,50.95,48.45,46.83Z"/><path class="cls-2" d="M61,18H71.86v1.34q0,20,0,40.07a12.32,12.32,0,0,0,.21,2.5c.35,1.72,1.15,2.41,2.87,2.43s2.57-.6,3-2.31a15.68,15.68,0,0,0,.23-3.58q0-19.56,0-39.11A2.73,2.73,0,0,1,78.26,18H88.89A2.5,2.5,0,0,1,89,19.33Q89,40,89,60.72a28,28,0,0,1-.37,5,8.89,8.89,0,0,1-7.52,7.66,29.49,29.49,0,0,1-11.56.12c-5.55-1.06-8.09-4-8.49-9.68,0-.56-.06-1.12-.06-1.68Q61,40.56,61,19Z"/><path class="cls-2" d="M138.62,53h10.84c.27.26.16.6.15.91-.06,3.4.16,6.79-.23,10.19-.62,5.49-3.17,8.38-8.61,9.39a30.33,30.33,0,0,1-11.91-.13c-4.73-1-7.26-4.08-7.8-9.21a45.81,45.81,0,0,1-.25-4.91c0-9.68,0-19.36.06-29a18.29,18.29,0,0,1,.92-5.77,8.61,8.61,0,0,1,6.68-5.9,30.2,30.2,0,0,1,12.61-.17c5.19,1,7.74,4,8.28,9.3.11,1,.22,2.07.24,3.1,0,2.36,0,4.72,0,7.17h-11c0-2.28.06-4.55,0-6.81-.08-2.71-1.6-4.07-4-3.74a2.72,2.72,0,0,0-2.41,2,7.69,7.69,0,0,0-.3,2.25q0,14.28,0,28.56a8.39,8.39,0,0,0,.09,1.43c.35,2,1.18,2.74,3.11,2.76s2.89-.72,3.34-2.69a15.36,15.36,0,0,0,.21-3.22C138.64,56.73,138.62,54.94,138.62,53Z"/><path class="cls-2" d="M.24,56.19H11a24.46,24.46,0,0,0,.15,4.88c.38,2.14,1.39,3,3.46,3s3-1,3.22-3.11c.36-3.51-.53-6.52-3.38-8.86s-5.81-4.76-8.55-7.33c-.12-.11-.23-.23-.35-.32C.05,40.14-.53,34.29.31,28c.67-5,3.25-8,8.16-9.3a19.79,19.79,0,0,1,3.18-.56,27.15,27.15,0,0,1,8.47.33,9.69,9.69,0,0,1,7.72,7.19,24.73,24.73,0,0,1,.62,9.55H17.67c-.14-1.55,0-3.11-.24-4.64-.37-1.94-1.12-2.69-2.88-2.7-2,0-3,.71-3.27,2.71a7.47,7.47,0,0,0,2.61,7.52c3,2.42,5.92,4.88,8.79,7.43,4,3.59,6.68,7.77,6.28,13.45a55.4,55.4,0,0,1-.5,6.56c-.82,4.32-3.35,7-7.63,7.88a28.65,28.65,0,0,1-12,0A10,10,0,0,1,.49,64.9,33.76,33.76,0,0,1,.24,56.19Z"/><path class="cls-2" d="M151.28,17.94H174.4V28.13H162.12V39.56h11.81V49.72H162.15V63.58h12.25V73.81H151.28Z"/><path class="cls-1" d="M242.36,55a17.88,17.88,0,0,0,.9,9.68c1.06,2.94,3,5,6.27,5.37s5.84-1.26,7.68-3.95a9.48,9.48,0,0,0,1.7-5.29,1.36,1.36,0,0,1,.2-1l2.19.25c.69,5.92-4.59,12.65-10.58,13.57-6.59,1-11.15-1.68-13.15-7.78a15.33,15.33,0,0,1-.79-3.62A41,41,0,0,1,239.67,43c1.56-3.7,3.93-6.74,8-7.82,3.35-.88,6.62-.74,9.25,2a9.08,9.08,0,0,1,2.27,5.56,24.17,24.17,0,0,1-.84,8.7,61.05,61.05,0,0,1-7.95,2.24C247.8,54.26,245.12,54.69,242.36,55Zm0-2.58c2.44-.37,4.59-.71,6.75-1a5.64,5.64,0,0,0,4.43-3.28c1.36-2.73,1.17-5.6.42-8.42-.65-2.44-2.57-3.32-4.94-2.47A5.23,5.23,0,0,0,246.68,39C243.71,42.88,243,47.47,242.41,52.44Z"/><path class="cls-1" d="M223.5,73.88h-4.06l1.77-33.27-7.67,1.54V39a43.93,43.93,0,0,0,13.64-3.53l-1,11.24c.47-.25.49-.73.65-1.09a25,25,0,0,1,4.09-6.73,8.79,8.79,0,0,1,7.14-3.06v6.63a2.82,2.82,0,0,1-.6.05,5.08,5.08,0,0,0-4.94,2.32A40.34,40.34,0,0,0,227.12,55C224.83,61,224,67.37,223.5,73.88Z"/><path class="cls-1" d="M209,72.67l-6,1.26a186.16,186.16,0,0,0,2.06-33.6l-6.69,1.19V38.71a67.94,67.94,0,0,0,13.33-3.44Z"/><path class="cls-1" d="M204,22.89c.07-2.82,2-5.14,4.23-5.09a4.87,4.87,0,0,1,4.48,4.77c0,2.62-2.26,5.09-4.52,5A4.57,4.57,0,0,1,204,22.89Z"/><path class="cls-2" d="M267.22,30.26a4.34,4.34,0,0,1-4.38,4.42,4.43,4.43,0,1,1,0-8.86A4.33,4.33,0,0,1,267.22,30.26Zm-2.41,2.64c.11.19.24.14.38,0a3.52,3.52,0,1,0-.49.38c.13-.09.39-.2.14-.44Z"/><path class="cls-2" d="M264.84,32.87c-.34-.09-.72.08-1.09-.2-.25-.57,0-1.32-.52-2l-1.13-.22c-.33.75,0,1.53-.22,2.25a.67.67,0,0,1-.8,0V27.62c1.2.14,2.54-.54,3.44.67a1.3,1.3,0,0,1-.46,1.89,5.88,5.88,0,0,1,.75,2.72ZM262,29.7c.83,0,1.64.12,1.59-1a2.17,2.17,0,0,0-1.6-.12A2,2,0,0,0,262,29.7Z"/></g></g></svg>